<svg width="61" height="60" viewBox="0 0 61 60" fill="none" xmlns="http://www.w3.org/2000/svg">
<path d="M35.257 13.0752C32.1226 11.9123 28.8241 11.2393 25.4803 11.0806C22.8502 11.3567 20.2386 11.7845 17.6589 12.362C16.9256 12.362 16.7057 10.7784 16.9256 10.319C17.1456 9.85967 17.0967 9.36405 16.4368 9.44866C15.5433 9.92029 14.8116 10.644 14.3348 11.5279C14.0293 12.2048 15.5569 13.8005 17.1578 14.7797C18.7588 15.7588 22.2417 15.9885 22.4739 16.0973C22.7745 16.7462 22.9802 17.4341 23.085 18.1402C23.195 18.6359 24.3071 19.1557 26.8613 20.4129C29.4154 21.6701 32.9717 23.0119 33.3139 22.8306C34.6734 20.6982 35.7999 18.4289 36.6746 16.061C36.6135 15.4929 36.1736 13.5225 35.257 13.0752ZM34.426 15.6863C34.3038 16.6292 32.8617 20.5217 32.324 20.3283C30.1024 19.598 27.9342 18.7175 25.8347 17.693C25.5658 17.3061 25.4803 15.4204 24.3437 15.0819C23.2072 14.7434 20.8241 14.0181 20.0298 13.7159C19.2354 13.4137 19.4187 13.1115 19.602 13.1115C19.7853 13.1115 21.1663 12.9664 21.1663 12.9664C24.1191 12.5768 27.1181 12.7037 30.0265 13.3411C33.9249 14.0544 34.536 14.695 34.426 15.6379V15.6863ZM57.6457 15.4204C54.8471 10.2828 51.1809 7.29692 44.5816 4.16602C37.9823 1.03511 33.1672 -0.222083 27.9734 0.0317742C23.1257 0.420142 18.4278 1.87829 14.2248 4.29899C8.81641 7.44622 4.59092 12.2497 2.18723 17.9831C0.622955 22.3228 -1.13686 27.122 0.96514 36.3817C3.06714 45.6414 8.90873 52.3142 17.1578 56.8111C25.407 61.308 35.0004 60.2201 41.7219 58.5519C48.4434 56.8837 52.9773 53.7165 55.6904 49.0262C58.4034 44.3359 58.8678 37.6631 60.3954 30.9782C61.923 24.2933 60.3954 20.5096 57.6091 15.372L57.6457 15.4204ZM49.5799 9.75088C49.8366 9.66626 53.1729 11.0443 55.4582 15.3478C57.7435 19.6513 58.4767 24.946 58.2079 25.4296C57.939 25.9131 57.108 25.9615 56.3381 25.7318C55.5682 25.5021 52.5007 23.7976 51.8408 23.7976C51.1809 23.7976 50.1176 24.3658 49.6655 23.7976C49.2133 23.2295 47.8323 21.5371 46.4514 21.5371C45.0704 21.5371 44.7771 21.7668 44.5449 21.4646C44.3127 21.1624 43.555 14.7797 44.9971 13.6071C46.4391 12.4345 47.7101 11.685 48.2845 11.1894C48.8589 10.6938 49.2011 9.82341 49.5433 9.70252L49.5799 9.75088ZM16.5835 5.03639C19.5013 3.44229 22.6842 2.37784 25.9813 1.89339C30.8697 1.32524 38.7766 3.48907 39.6077 3.86381C40.4387 4.23855 41.1353 4.46823 40.8298 4.69791C40.5242 4.92759 37.7379 7.33319 36.748 7.49034C35.7581 7.64749 32.324 6.81339 29.7209 6.92218C27.1179 7.03098 25.3703 7.5266 24.1115 7.5266C22.8528 7.5266 21.0563 6.16061 19.8342 6.05181C18.6121 5.94302 15.9358 5.29024 16.5101 4.98803L16.5835 5.03639ZM2.99381 23.3866C4.66808 16.5083 7.88218 12.8455 8.15104 12.8818C8.4199 12.918 14.7503 16.5083 17.3167 17.7172C19.8831 18.926 20.0298 18.926 20.2131 19.4579C20.3624 20.8072 20.284 22.1716 19.9809 23.4954C19.7609 23.6042 15.1781 23.3866 13.8704 23.4954C12.5628 23.6042 12.1717 25.4175 12.2695 26.1428C12.3672 26.8681 12.4284 27.1945 12.1228 27.4242C11.8173 27.6538 7.7233 28.7418 7.50333 29.8419C7.28335 30.9419 10.3997 36.3333 9.94751 36.4905C9.49534 36.6476 4.36255 36.2971 3.14046 35.052C1.99758 31.2524 1.9468 27.2131 2.99381 23.3866ZM9.17759 47.2613C5.27912 42.2688 4.14258 37.9653 4.28923 37.7356C4.52143 37.2883 7.41778 38.0378 8.79874 38.5697C10.1797 39.1016 10.6319 39.7785 10.6685 40.8302C10.7052 41.8819 10.5097 46.4634 11.4629 47.2976C12.9828 48.342 14.2616 49.6934 15.2147 51.2626C15.7682 52.0716 16.1812 52.9663 16.4368 53.9099C13.5873 52.2023 11.1177 49.9404 9.17759 47.2613ZM26.9346 57.2342C25.4522 56.9502 23.9874 56.5829 22.5473 56.1342C21.0197 55.566 19.6754 55.2638 19.6754 55.155C19.6754 55.0462 18.2822 50.6219 16.2779 48.6877C15.1721 47.7563 14.2015 46.6783 13.3938 45.4843C13.1602 43.9952 13.0174 42.4935 12.9661 40.9874C12.9661 39.9599 12.5139 37.5059 12.7461 37.5059C14.6266 38.2496 16.6358 38.6233 18.661 38.606C22.7061 38.6785 26.6779 38.2312 27.1057 38.7148C27.5334 39.1983 27.4479 40.8665 26.5679 42.4622C26.0133 43.4727 25.5275 44.5186 25.1137 45.5931C23.9069 44.489 22.6158 43.4786 21.2519 42.571C21.0932 42.6379 20.964 42.7588 20.8878 42.9118C20.8115 43.0649 20.7933 43.2399 20.8363 43.4051C20.9952 43.7435 24.5026 46.0887 24.6615 46.3909C24.685 47.0983 24.6441 47.8063 24.5393 48.5064C23.391 47.4587 22.1656 46.4971 20.873 45.6293C20.4208 45.5568 20.1153 46.6569 20.262 46.8382C20.4086 47.0195 24.5759 49.8603 25.1503 50.3559C25.7178 51.2874 26.0684 52.3321 26.1769 53.4143C26.0669 53.4143 21.4107 49.679 21.1419 49.6306C20.873 49.5823 20.7997 50.8395 20.7997 50.8395C20.7997 50.8395 26.2991 54.6957 26.4824 54.9979C26.7424 55.7176 26.8948 56.471 26.9346 57.2342ZM55.116 45.0249C53.7372 48.4519 51.3913 51.4144 48.3578 53.5594C46.9524 54.3572 45.4981 54.6594 45.3881 54.4297C44.1065 52.1882 43.1637 49.7731 42.5896 47.2613C41.7585 43.3688 41.5263 41.5555 40.2309 41.2171C38.9355 40.8786 35.7214 40.1291 35.1104 39.3675C34.697 38.6815 34.4619 37.9049 34.426 37.107C34.426 37.107 34.7682 32.4167 34.7682 31.4013C34.7682 30.3858 34.7682 28.7902 35.037 28.7902C35.477 28.7902 42.0274 28.3066 43.3228 29.5517C44.6182 30.7968 45.6937 32.1507 46.7936 32.1145C47.8934 32.0782 58.0246 31.2078 58.0246 31.5947C58.0246 31.9815 56.8758 40.6126 55.116 45.0249ZM58.3301 29.0803C58.1346 29.2012 51.6819 29.9506 50.1543 30.0353C48.6267 30.1199 48.9322 30.4463 48.089 30.0353C47.2457 29.6243 45.9136 28.0648 43.9461 27.7626C41.9785 27.4604 35.9658 27.0857 34.7804 27.0857C33.595 27.0857 33.2528 27.0857 33.1306 27.6538C33.0084 28.222 33.2528 33.9156 32.6417 35.7773C32.0307 37.6389 32.4462 40.6852 34.6582 41.5555C36.8702 42.4259 39.1677 42.8732 39.4732 43.671C39.7788 44.4689 40.8542 49.7152 41.8074 51.4922C42.7607 53.2692 44.0927 55.3001 43.6406 55.6748C41.307 56.6626 38.834 57.2904 36.308 57.5364C33.9623 57.8222 31.59 57.8222 29.2443 57.5364C29.2443 57.5364 27.8267 50.2834 27.4479 49.6306C27.0371 48.7462 26.8645 47.7718 26.9468 46.8019C27.1057 46.3063 29.8065 40.9149 29.4643 39.5489C29.1221 38.1829 28.5844 36.7927 27.3256 36.4542C26.0669 36.1157 23.9649 36.4542 20.5675 36.4542C18.3799 36.4849 16.1945 36.3068 14.0415 35.9223C13.3571 35.7773 12.9661 35.9223 12.6606 35.5839C12.355 35.2454 9.87418 30.7485 10.2164 30.3375C10.5586 29.9265 14.0415 28.9352 14.1882 28.1374C14.3348 27.3395 14.1148 25.4175 14.9947 25.345C15.8747 25.2724 19.7242 25.8043 20.9463 25.1636C22.1684 24.5229 22.3273 23.0482 22.364 21.7547C22.4006 20.4612 21.9118 17.6446 21.3374 17.1127C20.763 16.5808 15.2269 14.9247 13.1249 13.8247C11.023 12.7246 9.25092 11.8664 9.48312 11.141C10.704 9.41446 12.2778 7.96069 14.1026 6.87383C15.7903 6.38437 17.6015 6.5308 19.1865 7.28483C21.1663 8.34862 20.9463 8.79589 23.6472 8.75962C26.348 8.72336 27.6678 8.27609 28.4622 8.45741C29.2565 8.63874 32.6295 10.0894 35.6114 9.52119C37.4931 9.21242 39.2806 8.48946 40.842 7.40572C41.7219 6.83756 42.2474 5.89466 42.7851 5.96719C43.3228 6.03973 48.1745 8.88051 48.089 9.18272C47.56 9.95347 46.8407 10.5777 45.9992 10.996C44.4578 12.0134 43.268 13.4729 42.5896 15.1786C41.9785 16.9556 41.6363 22.2866 42.4429 22.8185C43.2495 23.3504 45.3026 22.5888 46.1092 23.1932C46.9158 23.7976 47.0991 25.6834 48.4434 25.8406C49.7877 25.9977 50.3498 25.0065 51.5719 25.8406C52.794 26.6747 52.794 27.3033 54.7005 27.3516C56.6069 27.4 58.3668 26.9648 58.4767 27.3516C58.6019 27.9295 58.5508 28.5311 58.3301 29.0803ZM7.84551 16.3149C7.57665 16.2424 7.30779 16.4358 6.69675 17.3424C6.07587 18.7624 5.60094 20.2406 5.27912 21.7547C5.43799 22.0206 6.12236 22.0206 6.58676 21.9481C7.05115 21.8756 6.73341 21.8756 7.0756 20.7393C7.41778 19.6029 8.72542 17.1127 8.79874 16.9193C8.87207 16.7259 8.11437 16.3874 7.84551 16.3149ZM43.555 9.55746C43.3595 9.29151 40.4631 9.99264 40.2676 10.1619C40.0721 10.3311 40.3409 11.2498 40.5731 11.3707C41.6822 11.1188 42.757 10.7373 43.775 10.2344C43.9461 10.0894 43.7383 9.82341 43.555 9.55746ZM37.7012 19.7117C38.1229 20.7315 38.7653 21.6475 39.5832 22.3954C39.9987 22.5888 39.8032 22.2503 39.9987 22.0206C40.1943 21.791 38.5811 19.2282 38.3978 19.0348C38.3978 19.0348 37.8356 19.4095 37.7012 19.7117ZM36.638 20.7755C36.5647 20.7755 36.0636 21.3437 36.0636 21.525C36.7003 22.3901 37.4765 23.1456 38.3611 23.7614C38.7766 23.8702 38.7033 23.5317 38.74 23.302C38.1287 22.384 37.4155 21.5365 36.6135 20.7755H36.638ZM54.7371 16.5446C53.8257 15.8607 52.7878 15.3597 51.6819 15.0698C51.6819 15.0698 51.2297 15.783 51.3397 15.9039C51.4497 16.0248 54.2483 17.1127 54.5538 17.2578C54.8594 17.4029 54.7738 16.7743 54.7371 16.5446ZM56.2648 21.6459C56.7658 21.7184 56.387 21.4162 56.3381 21.0052C56.2892 20.5942 51.4497 17.8139 51.4497 17.9468C51.4497 18.0798 50.9242 18.7688 51.1075 19.0348C52.7547 20.0376 54.4791 20.9107 56.2648 21.6459ZM56.7292 24.2086C57.218 24.2086 56.9491 23.8702 56.8758 23.5317C55.0275 22.2548 53.0442 21.1807 50.9609 20.3283C50.802 20.3283 50.582 21.114 50.692 21.3074C52.6359 22.4082 54.6529 23.3775 56.7292 24.2086ZM52.1096 34.2662C51.9141 34.3387 51.5719 34.4838 51.4986 34.6772C52.6641 35.8874 53.9406 36.9882 55.3115 37.9653C55.6171 38.0741 55.5437 37.9653 55.6537 37.6268C54.653 36.3339 53.4578 35.2006 52.1096 34.2662ZM50.191 36.563C50.0333 36.8062 49.8944 37.0608 49.7755 37.3246C51.1088 38.6084 52.5123 39.8191 53.9795 40.9511C54.1261 40.9511 54.2483 40.7214 54.285 40.4192C53.0285 39.0259 51.6593 37.7362 50.191 36.563ZM48.9689 38.9807C48.7731 39.1637 48.597 39.3662 48.4434 39.5851C49.8011 40.9557 51.2418 42.2435 52.7574 43.4413C53.1362 43.4413 52.9773 43.2963 53.0629 42.9941C51.8368 41.5357 50.4652 40.2032 48.9689 39.017V38.9807ZM48.0156 40.9874C47.8421 41.0126 47.6779 41.0814 47.5388 41.1872C47.3998 41.293 47.2904 41.4323 47.2213 41.5918C48.7136 42.9228 50.2804 44.1699 51.9141 45.3271C52.0608 45.448 52.183 45.2546 52.183 44.9524C50.9033 43.5337 49.5097 42.2198 48.0156 41.0237V40.9874ZM47.2579 44.6139C47.1724 44.6139 46.7569 45.0612 46.7936 45.2909C48.0304 46.3748 49.3323 47.3841 50.692 48.313C50.802 48.313 50.9975 48.1679 50.9975 47.902C49.8962 46.6648 48.6395 45.5721 47.2579 44.6502V44.6139ZM46.3903 46.8382C46.1581 46.8382 45.8892 47.2975 45.8159 47.4789C46.9864 48.6776 48.267 49.7662 49.641 50.7307C49.9465 50.8395 49.8243 50.7307 50.0932 50.3922C50.3621 50.0537 46.6225 46.8382 46.3903 46.8382ZM35.9536 44.5051C35.9536 44.1546 34.4993 43.6106 34.3893 43.7798C34.2793 43.9491 33.8883 44.2392 33.8883 44.3842C34.4788 44.6592 35.1101 44.8387 35.7581 44.9161C35.9536 44.9524 35.9169 44.8799 35.9536 44.5051ZM32.0551 49.3405C32.2018 49.4493 32.0551 49.3405 32.8984 49.3405C33.7416 49.3405 34.1205 49.8966 34.8782 50.3197C35.4419 50.6143 36.0997 50.6794 36.7113 50.501C37.0168 50.4285 37.0902 50.2471 37.2124 50.0537C37.2568 49.9519 37.2614 49.8374 37.2252 49.7324C37.1891 49.6274 37.1148 49.5394 37.0168 49.4856C36.8335 49.3768 36.2591 49.824 35.4892 49.7152C34.7193 49.6064 33.8883 48.6515 33.3139 48.3855C33.0901 48.2897 32.8489 48.2403 32.6051 48.2403C32.3613 48.2403 32.12 48.2897 31.8963 48.3855C31.5907 48.724 31.8963 49.3405 32.0551 49.413V49.3405ZM25.1014 42.6919C25.3336 42.7644 25.4803 42.4259 25.5658 42.16C25.6514 41.894 23.4272 39.972 23.1217 39.7423C23.1217 39.7423 22.5106 40.2016 22.4739 40.4555C23.234 41.3452 24.1188 42.1227 25.1014 42.7644V42.6919ZM20.1031 28.5605C21.1565 30.3742 22.3153 32.1259 23.5738 33.8069C23.7327 33.964 23.8793 33.6981 24.1482 33.4321C24.4171 33.1662 21.1296 28.1495 20.983 28.1011C20.6478 28.1579 20.3396 28.3188 20.1031 28.5605ZM22.2417 27.5813C22.9034 28.7849 23.681 29.9225 24.5637 30.9782C24.9181 31.2078 24.7593 30.8573 24.8692 30.6397C24.4441 29.4892 23.8733 28.3965 23.1705 27.3879C22.9628 27.1582 22.2173 27.4725 22.2417 27.5813ZM30.5031 26.0219C30.1609 26.0219 29.0366 27.0978 28.9388 27.2307C29.0049 27.6963 29.2341 28.1241 29.5865 28.4396C29.892 28.633 31.4563 26.6263 31.6152 26.3241C31.7741 26.0219 30.8697 26.0219 30.5031 26.0219Z" fill="black"/>
</svg>
